<svg xmlns="http://www.w3.org/2000/svg" viewBox="787.802 80.149 560.431 747.583">
  <defs>
    <style>
      .cls-1 {
        fill: #24a2a7;
      }
    </style>
  </defs>
  <g id="logo" transform="translate(787.806 80.149)">
    <path id="Path_1" data-name="Path 1" class="cls-1" d="M445.854,46.09l-275.364,2.18.538,101.894,275.9-1.635L448,299.462a40.909,40.909,0,0,1-7.53,23.975,69.665,69.665,0,0,1-25.278,21.8l-5.916,1.09L1.076,349.591v15.257h0L0,546.84l98.421.545.538-100.8,299.029-2.18c50.555,0,98.421-22.34,131.766-61.572l2.689-3.269c18.286-23.43,27.967-52.854,27.967-82.823L558.8,45Z" transform="translate(0.017 200.199)"/>
    <path id="Path_2" data-name="Path 2" class="cls-1" d="M114.035,501.295l275.364-2.18-.538-102.438-275.9,2.18-1.076-150.933a43.9,43.9,0,0,1,7.529-24.52,69.665,69.665,0,0,1,25.278-21.8l5.916-1.09,408.206-2.724V182.537h0L559.351.545,461.468,0l-.538,100.8-299.566,2.18A170.745,170.745,0,0,0,30.135,164.555l-2.689,3.269A129.57,129.57,0,0,0,.017,250.1L1.631,501.84Z" transform="translate(0)"/>
  </g>
</svg>
